<svg width="46" height="32" viewBox="0 0 46 32" fill="none" xmlns="http://www.w3.org/2000/svg">
<path d="M32.851 11.3269C29.2283 7.91132 24.5297 7.09973 22.3427 6.88216C22.8279 6.55407 23.4069 6.2018 24.0719 5.86681C25.7581 5.01377 27.19 4.29198 29.0092 4.5061C29.4474 4.5579 31.0631 4.77202 32.2368 6.01531C33.7352 7.61086 33.2813 9.58976 33.2148 9.85569C37.4753 9.82806 41.7396 9.79697 46 9.76935C45.8983 9.38255 45.7301 8.85069 45.464 8.23596C45.2841 7.82498 44.7051 6.57134 43.4101 5.0863C42.299 3.81193 40.7772 2.06788 38.0816 0.962733C35.1553 -0.235657 32.4559 -0.0146283 31.4543 0.0786182C26.1572 0.569026 22.6557 3.88446 21.1456 5.63196C21.6425 4.24363 21.4586 2.83112 20.4884 1.81577C18.7709 0.0130003 15.246 0.140783 12.6091 2.09551C12.5074 2.17148 12.4096 2.24746 12.3157 2.32344L20.0502 7.13772C19.7568 7.4071 19.3655 7.72138 19.2834 7.79045C18.4305 8.53987 17.4094 9.42054 16.267 9.82115C15.5863 10.0594 14.7804 10.1078 14.0918 9.8695C13.3642 9.61739 13.1451 9.12007 13.0864 8.45699C13.0316 7.83189 13.2077 7.2137 13.3329 6.60242C13.4268 6.15 13.5559 5.74593 13.6928 5.39367C9.12724 5.36604 4.56557 5.33496 0 5.30733C0.0978058 5.77356 1.37709 11.3753 6.87769 13.3369C7.56624 13.5821 10.3126 14.5215 13.4933 13.7099C15.6841 13.1504 17.1004 12.0142 17.961 11.32C19.2364 10.2943 20.0815 9.23059 20.6253 8.40518C20.5861 9.26167 20.4297 10.2874 20.0345 11.396C19.6394 12.4977 18.3171 15.6093 14.6552 17.6262C12.7969 18.6485 10.9738 19.0353 9.67102 19.1907C7.95356 22.589 6.24001 25.9908 4.52254 29.3891C5.76272 29.4236 6.99898 29.4582 8.23916 29.4927C10.3283 29.2717 12.8204 28.7433 15.3985 27.6036C17.1747 26.8162 19.4633 25.8043 21.3842 23.5733C23.399 21.2387 23.8803 18.8661 24.0602 17.9163C25.0031 12.9674 22.4953 8.96121 21.4586 7.51762C21.4703 7.51071 21.4781 7.50035 21.4899 7.49344C22.3897 8.07019 23.5203 8.94394 24.5258 10.2045C25.2769 11.1473 27.28 13.9654 26.8731 17.7575C26.6658 19.6811 25.9107 21.1972 25.2613 22.2022C27.2839 25.4693 29.3026 28.7329 31.3252 32C31.3018 31.9586 31.8299 31.4543 31.8925 31.3887C32.0998 31.1677 32.3033 30.9467 32.5067 30.7256C32.9136 30.2836 33.3244 29.8346 33.6843 29.3615C34.3533 28.4774 34.8736 27.5 35.2922 26.5054C35.5152 25.977 35.7108 25.4417 35.883 24.8995C36.0551 24.3641 36.196 23.8254 36.3133 23.2797C36.6811 21.5564 37.1584 19.3357 36.3133 16.6316C35.4292 13.8031 33.5865 12.0245 32.8432 11.3235L32.851 11.3269Z" fill="#F2F2F2"/>
</svg>
