<svg width="344" height="235" viewBox="0 0 344 235" fill="none" xmlns="http://www.w3.org/2000/svg">
<g style="mix-blend-mode:color-dodge" opacity="0.1">
<path d="M278.24 284.183C231.591 226.26 240.689 138.131 240.689 138.131C240.689 138.131 325.42 143.913 372.069 201.836C418.718 259.758 409.621 347.887 409.621 347.887C409.621 347.887 324.89 342.106 278.24 284.183Z" fill="#F2F2F2"/>
<path d="M172.723 272.749C230.697 226.164 240.689 138.132 240.689 138.132C240.689 138.132 156.686 125.628 98.712 172.213C40.7377 218.798 30.7455 306.831 30.7455 306.831C30.7455 306.831 114.748 319.334 172.723 272.749Z" fill="#F2F2F2"/>
<path d="M308.648 3.58717C250.673 50.1722 240.681 138.204 240.681 138.204C240.681 138.204 324.684 150.708 382.658 104.123C440.632 57.5375 450.625 -30.4947 450.625 -30.4947C450.625 -30.4947 366.622 -42.9978 308.648 3.58717Z" fill="#F2F2F2"/>
<path d="M203.13 -7.84749C249.779 50.0751 240.681 138.204 240.681 138.204C240.681 138.204 155.95 132.422 109.301 74.4998C62.6516 16.5771 71.7494 -71.552 71.7494 -71.552C71.7494 -71.552 156.481 -65.7701 203.13 -7.84749Z" fill="#F2F2F2"/>
</g>
</svg>
