<svg width="120" height="132" viewBox="0 0 120 132" fill="none" xmlns="http://www.w3.org/2000/svg">
<path d="M92.25 104.25C95.375 104.25 98.0312 103.156 100.219 100.969C102.406 98.7813 103.5 96.125 103.5 93C103.5 89.875 102.406 87.2188 100.219 85.0313C98.0312 82.8438 95.375 81.75 92.25 81.75C89.125 81.75 86.4688 82.8438 84.2812 85.0313C82.0938 87.2188 81 89.875 81 93C81 96.125 82.0938 98.7813 84.2812 100.969C86.4688 103.156 89.125 104.25 92.25 104.25ZM92.25 126.75C96 126.75 99.5 125.875 102.75 124.125C106 122.375 108.688 119.938 110.812 116.812C107.938 115.062 104.938 113.781 101.812 112.969C98.6875 112.156 95.5 111.75 92.25 111.75C89 111.75 85.8125 112.156 82.6875 112.969C79.5625 113.781 76.5625 115.062 73.6875 116.812C75.8125 119.938 78.5 122.375 81.75 124.125C85 125.875 88.5 126.75 92.25 126.75ZM28.5 42.75H73.5V27.75C73.5 21.5 71.3125 16.1875 66.9375 11.8125C62.5625 7.4375 57.25 5.25 51 5.25C44.75 5.25 39.4375 7.4375 35.0625 11.8125C30.6875 16.1875 28.5 21.5 28.5 27.75V42.75ZM57 128.25H12C8.75 128.25 6.0625 127.188 3.9375 125.063C1.8125 122.938 0.75 120.25 0.75 117V54C0.75 50.75 1.8125 48.0625 3.9375 45.9375C6.0625 43.8125 8.75 42.75 12 42.75H23.25V27.75C23.25 20 25.9375 13.4375 31.3125 8.0625C36.6875 2.6875 43.25 0 51 0C58.75 0 65.3125 2.6875 70.6875 8.0625C76.0625 13.4375 78.75 20 78.75 27.75V42.75H90C93.25 42.75 95.9375 43.8125 98.0625 45.9375C100.188 48.0625 101.25 50.75 101.25 54V62.625C100.625 62.375 99.8438 62.1875 98.9063 62.0625C97.9688 61.9375 97 61.875 96 61.875V54C96 52.25 95.4375 50.8125 94.3125 49.6875C93.1875 48.5625 91.75 48 90 48H12C10.25 48 8.8125 48.5625 7.6875 49.6875C6.5625 50.8125 6 52.25 6 54V117C6 118.75 6.5625 120.188 7.6875 121.313C8.8125 122.438 10.25 123 12 123H54C54.25 124 54.625 124.938 55.125 125.812C55.625 126.688 56.25 127.5 57 128.25ZM92.25 132C84.5 132 77.9375 129.312 72.5625 123.938C67.1875 118.562 64.5 112 64.5 104.25C64.5 96.5 67.1875 89.9375 72.5625 84.5625C77.9375 79.1875 84.5 76.5 92.25 76.5C100 76.5 106.562 79.1875 111.938 84.5625C117.312 89.9375 120 96.5 120 104.25C120 112 117.312 118.562 111.938 123.938C106.562 129.312 100 132 92.25 132Z" fill="#F2F2F2"/>
</svg>
