<svg width="204" height="158" viewBox="0 0 204 158" fill="none" xmlns="http://www.w3.org/2000/svg">
<g clip-path="url(#clip0_1195_1853)">
<path d="M204 88.013C203.691 94.8955 200.976 98.9591 195.814 101.493C180.239 109.132 164.687 116.81 149.119 124.465C127.705 134.995 106.292 145.518 84.8779 156.042C76.4876 160.166 69.1661 157.698 65.0067 149.313C52.9089 124.926 40.833 100.533 28.7186 76.1566C27.1265 72.9539 26.0853 69.7019 26.9172 66.0879C27.9584 61.5581 30.735 58.5309 34.8778 56.5019C60.5499 43.916 86.2 31.2809 111.856 18.6621C123.237 13.063 134.619 7.4583 146.001 1.85912C154.077 -2.1168 161.465 0.394883 165.431 8.40703C177.601 32.9864 189.814 57.5383 201.94 82.1396C203.003 84.3003 203.554 86.7133 204 88.013ZM36.6407 79.4634C37.6708 81.5528 38.4752 83.2035 39.2905 84.8433C49.5924 105.611 59.8999 126.379 70.1963 147.153C71.0391 148.853 71.9151 150.52 73.9589 151.342C74.2674 150.602 74.5429 149.982 74.7853 149.357C80.669 134.408 86.5471 119.464 92.4253 104.514C92.6511 103.944 92.8219 103.335 93.1304 102.814C93.8741 101.564 94.9649 100.966 96.4303 101.465C97.9784 101.992 98.5293 103.154 98.2538 104.695C98.1492 105.293 97.8792 105.863 97.6589 106.434C91.9129 121.065 86.1615 135.697 80.4155 150.333C80.2117 150.854 80.0685 151.408 79.771 152.352C118.77 133.174 157.371 114.188 195.968 95.208C195.373 94.4896 194.96 94.2922 194.519 94.1661C182.129 90.6015 169.739 87.0478 157.349 83.4887C154.055 82.54 150.761 81.6022 147.466 80.637C145.4 80.0338 144.491 78.756 144.904 77.0998C145.329 75.3888 146.838 74.7362 149.047 75.3065C149.312 75.3778 149.571 75.4711 149.835 75.5424C165.459 80.0173 181.082 84.4868 196.712 88.9563C197.191 89.0934 197.698 89.1318 198.238 89.225C198.122 86.8614 165.365 19.8193 163.283 17.5544C162.903 18.3934 162.528 19.1886 162.17 19.9893C151.873 43.3183 141.582 66.6528 131.27 89.9763C128.157 97.0178 121.981 100.144 114.495 98.3394C95.4222 93.7493 76.3719 89.0879 57.3051 84.4594C50.5841 82.8251 43.863 81.2073 36.6296 79.4579L36.6407 79.4634ZM32.261 68.0676C32.2279 71.8461 33.0653 72.8662 36.1724 73.6175C42.8383 75.2243 49.5043 76.8476 56.1702 78.4653C76.1681 83.3187 96.1549 88.1885 116.164 93.0035C120.488 94.0454 124.097 92.2138 125.942 88.194C127.424 84.9639 128.835 81.6954 130.267 78.4434C140.007 56.3647 149.73 34.2751 159.52 12.2129C160.176 10.7323 160.01 9.68481 159.074 8.49477C156.661 5.44566 152.832 4.69435 148.882 6.63021C128.394 16.6989 107.906 26.773 87.4231 36.8526C70.626 45.117 53.8399 53.3924 37.0373 61.6349C34.0514 63.0991 32.4262 65.3969 32.2555 68.0567L32.261 68.0676Z" fill="#F2F2F2"/>
<path d="M29.3853 123.231C28.9941 123.67 28.4322 124.794 27.5287 125.255C19.8381 129.143 12.0924 132.933 4.34115 136.7C2.61131 137.539 0.969614 136.991 0.280983 135.548C-0.407647 134.101 0.203857 132.521 1.92819 131.666C9.59127 127.871 17.2654 124.087 24.9615 120.358C27.1927 119.277 29.2916 120.391 29.3908 123.231H29.3853Z" fill="#F2F2F2"/>
<path d="M47.8295 133.772C47.4549 134.199 46.915 135.263 46.0611 135.697C38.3044 139.607 30.4925 143.413 22.6862 147.229C21.0886 148.008 19.7058 147.635 18.8024 146.105C17.9925 144.729 18.6316 143.056 20.3228 142.217C28.041 138.384 35.7702 134.561 43.527 130.799C45.67 129.757 47.8516 131.024 47.8295 133.772Z" fill="#F2F2F2"/>
<path d="M5.33275 116.404C4.61657 115.751 3.32195 115.12 3.15668 114.27C2.96937 113.3 3.51476 111.885 4.23645 111.117C5.02424 110.273 6.36845 109.938 7.47577 109.395C13.8773 106.247 20.2733 103.1 26.6748 99.9517C27.1651 99.7104 27.6444 99.4197 28.1567 99.2388C29.6827 98.7068 31.0269 98.9042 31.8753 100.434C32.6576 101.838 32.1894 103.357 30.5477 104.218C27.6334 105.748 24.6585 107.158 21.7056 108.611C17.0946 110.887 12.4835 113.163 7.8614 115.417C7.1893 115.746 6.46761 115.96 5.33275 116.398V116.404Z" fill="#F2F2F2"/>
</g>
<defs>
<clipPath id="clip0_1195_1853">
<rect width="204" height="158" fill="white"/>
</clipPath>
</defs>
</svg>
